<?xml version="1.0" encoding="iso-8859-1"?>
<!-- Generator: Adobe Illustrator 19.0.0, SVG Export Plug-In . SVG Version: 6.00 Build 0)  -->
<svg version="1.1" id="Layer_1" xmlns="http://www.w3.org/2000/svg" xmlns:xlink="http://www.w3.org/1999/xlink" x="0px" y="0px"
	 viewBox="0 0 512 512" style="enable-background:new 0 0 512 512;" xml:space="preserve">
<g>
	<g>
		<g>
			<path d="M234.667,0h-224C4.8,0,0,4.8,0,10.667v224c0,5.867,4.8,10.667,10.667,10.667h224c5.867,0,10.667-4.8,10.667-10.667v-224
				C245.333,4.8,240.533,0,234.667,0z M224,224H21.333V21.333H224V224z"/>
			<path d="M501.333,0H288c-5.867,0-10.667,4.8-10.667,10.667v224c0,5.867,4.8,10.667,10.667,10.667h213.333
				c5.867,0,10.667-4.8,10.667-10.667v-224C512,4.8,507.2,0,501.333,0z M490.667,224h-192V21.333h192V224z"/>
			<path d="M234.667,266.667h-224C4.8,266.667,0,271.467,0,277.333v224C0,507.2,4.8,512,10.667,512h224
				c5.867,0,10.667-4.8,10.667-10.667v-224C245.333,271.467,240.533,266.667,234.667,266.667z M224,490.667H21.333V288H224V490.667z
				"/>
			<path d="M501.333,266.667H288c-5.867,0-10.667,4.8-10.667,10.667v224c0,5.867,4.8,10.667,10.667,10.667h213.333
				C507.2,512,512,507.2,512,501.333v-224C512,271.467,507.2,266.667,501.333,266.667z M490.667,490.667h-192V288h192V490.667z"/>
		</g>
	</g>
</g>
<g>
</g>
<g>
</g>
<g>
</g>
<g>
</g>
<g>
</g>
<g>
</g>
<g>
</g>
<g>
</g>
<g>
</g>
<g>
</g>
<g>
</g>
<g>
</g>
<g>
</g>
<g>
</g>
<g>
</g>
</svg>
